<svg xmlns="http://www.w3.org/2000/svg" xmlns:xlink="http://www.w3.org/1999/xlink" width="500" zoomAndPan="magnify" viewBox="0 0 375 374.999991" height="500" preserveAspectRatio="xMidYMid meet" version="1.0"><defs><g/><clipPath id="id1"><path d="M 63.742188 63.742188 L 311.242188 63.742188 L 311.242188 311.242188 L 63.742188 311.242188 Z M 63.742188 63.742188 " clip-rule="nonzero"/></clipPath><clipPath id="id2"><path d="M 121.636719 124.636719 L 253.636719 124.636719 L 253.636719 256.636719 L 121.636719 256.636719 Z M 121.636719 124.636719 " clip-rule="nonzero"/></clipPath></defs><g clip-path="url(#id1)"><path fill="#626060" d="M 187.492188 63.742188 C 119.210938 63.742188 63.742188 119.210938 63.742188 187.492188 C 63.742188 255.769531 119.210938 311.242188 187.492188 311.242188 C 255.769531 311.242188 311.242188 255.769531 311.242188 187.492188 C 311.242188 119.210938 255.769531 63.742188 187.492188 63.742188 Z M 187.492188 69.121094 C 252.933594 69.121094 305.859375 122.046875 305.859375 187.492188 C 305.859375 252.933594 252.933594 305.859375 187.492188 305.859375 C 122.046875 305.859375 69.121094 252.933594 69.121094 187.492188 C 69.121094 122.046875 122.046875 69.121094 187.492188 69.121094 Z M 187.492188 69.121094 " fill-opacity="1" fill-rule="nonzero"/></g><g clip-path="url(#id2)"><path fill="#626060" d="M 187.636719 124.636719 C 151.222656 124.636719 121.636719 154.222656 121.636719 190.636719 C 121.636719 227.050781 151.222656 256.636719 187.636719 256.636719 C 224.050781 256.636719 253.636719 227.050781 253.636719 190.636719 C 253.636719 188.683594 253.515625 186.804688 253.355469 184.988281 C 253.257812 183.898438 252.605469 182.925781 251.625 182.4375 C 250.628906 181.945312 249.460938 182.007812 248.53125 182.59375 C 246.796875 183.699219 244.808594 184.351562 242.636719 184.351562 C 237.972656 184.351562 234.054688 181.464844 232.433594 177.414062 C 232.101562 176.578125 231.429688 175.929688 230.59375 175.621094 C 229.746094 175.316406 228.8125 175.375 228.015625 175.804688 C 225.363281 177.242188 222.320312 178.066406 219.066406 178.066406 C 208.617188 178.066406 200.207031 169.65625 200.207031 159.207031 C 200.207031 155.953125 201.03125 152.910156 202.46875 150.257812 C 202.898438 149.460938 202.957031 148.527344 202.652344 147.679688 C 202.34375 146.84375 201.695312 146.171875 200.859375 145.839844 C 196.808594 144.21875 193.921875 140.300781 193.921875 135.636719 C 193.921875 133.464844 194.574219 131.476562 195.679688 129.742188 C 196.265625 128.8125 196.328125 127.644531 195.835938 126.648438 C 195.347656 125.667969 194.375 125.015625 193.285156 124.917969 C 191.46875 124.757812 189.589844 124.636719 187.636719 124.636719 Z M 228.492188 124.636719 C 225.019531 124.636719 222.207031 127.449219 222.207031 130.921875 C 222.207031 134.398438 225.019531 137.207031 228.492188 137.207031 C 231.96875 137.207031 234.78125 134.398438 234.78125 130.921875 C 234.78125 127.449219 231.96875 124.636719 228.492188 124.636719 Z M 187.636719 130.921875 C 188.089844 130.921875 188.558594 130.972656 189.011719 130.996094 C 188.53125 132.554688 187.636719 133.917969 187.636719 135.636719 C 187.636719 141.726562 191.210938 146.585938 195.996094 149.65625 C 194.769531 152.628906 193.921875 155.808594 193.921875 159.207031 C 193.921875 173.054688 205.21875 184.351562 219.066406 184.351562 C 222.464844 184.351562 225.644531 183.503906 228.617188 182.277344 C 231.6875 187.0625 236.546875 190.636719 242.636719 190.636719 C 244.355469 190.636719 245.71875 189.742188 247.289062 189.261719 C 247.300781 189.714844 247.351562 190.183594 247.351562 190.636719 C 247.351562 223.648438 220.648438 250.351562 187.636719 250.351562 C 154.625 250.351562 127.921875 223.648438 127.921875 190.636719 C 127.921875 157.625 154.625 130.921875 187.636719 130.921875 Z M 223.78125 149.78125 C 221.175781 149.78125 219.066406 151.890625 219.066406 154.492188 C 219.066406 157.097656 221.175781 159.207031 223.78125 159.207031 C 226.382812 159.207031 228.492188 157.097656 228.492188 154.492188 C 228.492188 151.890625 226.382812 149.78125 223.78125 149.78125 Z M 176.636719 159.207031 C 174.035156 159.207031 171.921875 161.320312 171.921875 163.921875 C 171.921875 166.523438 174.035156 168.636719 176.636719 168.636719 C 179.238281 168.636719 181.351562 166.523438 181.351562 163.921875 C 181.351562 161.320312 179.238281 159.207031 176.636719 159.207031 Z M 250.492188 159.207031 C 248.761719 159.207031 247.351562 160.621094 247.351562 162.351562 C 247.351562 164.082031 248.761719 165.492188 250.492188 165.492188 C 252.226562 165.492188 253.636719 164.082031 253.636719 162.351562 C 253.636719 160.621094 252.226562 159.207031 250.492188 159.207031 Z M 156.207031 174.921875 C 151.003906 174.921875 146.78125 179.144531 146.78125 184.351562 C 146.78125 189.554688 151.003906 193.78125 156.207031 193.78125 C 161.414062 193.78125 165.636719 189.554688 165.636719 184.351562 C 165.636719 179.144531 161.414062 174.921875 156.207031 174.921875 Z M 186.066406 187.492188 C 183.460938 187.492188 181.351562 189.605469 181.351562 192.207031 C 181.351562 194.8125 183.460938 196.921875 186.066406 196.921875 C 188.667969 196.921875 190.78125 194.8125 190.78125 192.207031 C 190.78125 189.605469 188.667969 187.492188 186.066406 187.492188 Z M 162.492188 209.492188 C 159.019531 209.492188 156.207031 212.304688 156.207031 215.78125 C 156.207031 219.253906 159.019531 222.066406 162.492188 222.066406 C 165.96875 222.066406 168.78125 219.253906 168.78125 215.78125 C 168.78125 212.304688 165.96875 209.492188 162.492188 209.492188 Z M 204.921875 212.636719 C 200.589844 212.636719 197.066406 216.160156 197.066406 220.492188 C 197.066406 224.828125 200.589844 228.351562 204.921875 228.351562 C 209.257812 228.351562 212.78125 224.828125 212.78125 220.492188 C 212.78125 216.160156 209.257812 212.636719 204.921875 212.636719 Z M 204.921875 212.636719 " fill-opacity="1" fill-rule="nonzero"/></g><g fill="#626060" fill-opacity="1"><g transform="translate(103.292069, 149.331019)"><g><path d="M -4.078125 -14.09375 L -6.90625 -8.625 L -4.3125 -7.28125 L -1.703125 -12.3125 L 0.53125 -11.140625 L -2.078125 -6.109375 L 2.0625 -3.96875 L 0.578125 -1.125 L -10.625 -6.9375 L -6.3125 -15.25 Z M -4.078125 -14.09375 "/></g></g></g><g fill="#626060" fill-opacity="1"><g transform="translate(110.792243, 135.59464)"><g><path d="M 5.4375 -7.015625 L 1.484375 -7.71875 L 1.421875 -7.640625 L -0.078125 -5.71875 L 2.734375 -3.53125 L 0.78125 -1 L -9.1875 -8.75 L -5.734375 -13.203125 C -4.703125 -14.523438 -3.609375 -15.3125 -2.453125 -15.5625 C -1.296875 -15.8125 -0.160156 -15.503906 0.953125 -14.640625 C 2.484375 -13.453125 3.085938 -12.023438 2.765625 -10.359375 L 7.6875 -9.890625 Z M -2.0625 -7.265625 L -0.5625 -9.1875 C -0.132812 -9.738281 0.0546875 -10.269531 0.015625 -10.78125 C -0.015625 -11.300781 -0.296875 -11.765625 -0.828125 -12.171875 C -1.335938 -12.566406 -1.84375 -12.71875 -2.34375 -12.625 C -2.851562 -12.53125 -3.320312 -12.207031 -3.75 -11.65625 L -5.25 -9.734375 Z M -2.0625 -7.265625 "/></g></g></g><g fill="#626060" fill-opacity="1"><g transform="translate(122.067509, 121.868516)"><g><path d="M 1.6875 -14.96875 L -3.328125 -10.546875 L -1.65625 -8.65625 L 2.859375 -12.640625 L 4.515625 -10.75 L 0 -6.765625 L 1.6875 -4.859375 L 6.84375 -9.40625 L 8.515625 -7.5 L 0.953125 -0.84375 L -7.390625 -10.3125 L 0.03125 -16.84375 Z M 1.6875 -14.96875 "/></g></g></g><g fill="#626060" fill-opacity="1"><g transform="translate(135.055739, 111.039447)"><g><path d="M -1.328125 -14.109375 C 0.285156 -15.078125 1.945312 -15.53125 3.65625 -15.46875 L 3.921875 -12.6875 C 3.148438 -12.675781 2.375 -12.578125 1.59375 -12.390625 C 0.820312 -12.210938 0.21875 -11.992188 -0.21875 -11.734375 C -1.019531 -11.253906 -1.265625 -10.753906 -0.953125 -10.234375 C -0.742188 -9.890625 -0.382812 -9.726562 0.125 -9.75 C 0.644531 -9.78125 1.226562 -9.890625 1.875 -10.078125 C 2.53125 -10.273438 3.203125 -10.4375 3.890625 -10.5625 C 4.585938 -10.6875 5.273438 -10.628906 5.953125 -10.390625 C 6.628906 -10.148438 7.179688 -9.671875 7.609375 -8.953125 C 8.234375 -7.910156 8.3125 -6.851562 7.84375 -5.78125 C 7.382812 -4.707031 6.523438 -3.789062 5.265625 -3.03125 C 4.378906 -2.5 3.398438 -2.117188 2.328125 -1.890625 C 1.265625 -1.671875 0.25 -1.640625 -0.71875 -1.796875 L -0.9375 -4.5625 C -0.09375 -4.414062 0.785156 -4.410156 1.703125 -4.546875 C 2.628906 -4.679688 3.382812 -4.925781 3.96875 -5.28125 C 4.40625 -5.539062 4.703125 -5.828125 4.859375 -6.140625 C 5.015625 -6.453125 5 -6.765625 4.8125 -7.078125 C 4.632812 -7.367188 4.335938 -7.53125 3.921875 -7.5625 C 3.515625 -7.59375 3.070312 -7.53125 2.59375 -7.375 C 2.113281 -7.21875 1.578125 -7.070312 0.984375 -6.9375 C 0.390625 -6.8125 -0.175781 -6.71875 -0.71875 -6.65625 C -1.257812 -6.59375 -1.800781 -6.691406 -2.34375 -6.953125 C -2.882812 -7.222656 -3.335938 -7.65625 -3.703125 -8.25 C -4.296875 -9.238281 -4.375 -10.265625 -3.9375 -11.328125 C -3.5 -12.398438 -2.628906 -13.328125 -1.328125 -14.109375 Z M -1.328125 -14.109375 "/></g></g></g><g fill="#626060" fill-opacity="1"><g transform="translate(149.20333, 102.920136)"><g><path d="M 12.140625 -4.421875 L 9.109375 -3.328125 L 7.421875 -7.9375 L 2.515625 -6.140625 L 4.203125 -1.53125 L 1.1875 -0.4375 L -3.140625 -12.296875 L -0.125 -13.390625 L 1.65625 -8.515625 L 6.5625 -10.3125 L 4.78125 -15.1875 L 7.8125 -16.28125 Z M 12.140625 -4.421875 "/></g></g></g><g fill="#626060" fill-opacity="1"><g transform="translate(167.166728, 97.030778)"><g><path d="M 3.96875 -3.390625 L 9.25 -4.28125 L 9.6875 -1.625 L 1.25 -0.203125 L -0.84375 -12.65625 L 2.3125 -13.1875 Z M 3.96875 -3.390625 "/></g></g></g><g fill="#626060" fill-opacity="1"><g transform="translate(181.922354, 94.886343)"><g><path d="M 7.8125 -4.015625 L 7.78125 0.0625 L 4.578125 0.03125 L 4.609375 -3.953125 L 0 -12.625 L 3.21875 -12.59375 L 6.234375 -7.078125 L 9.25 -12.546875 L 12.453125 -12.53125 Z M 7.8125 -4.015625 "/></g></g></g><g fill="#626060" fill-opacity="1"><g transform="translate(199.168787, 95.674062)"><g/></g></g><g fill="#626060" fill-opacity="1"><g transform="translate(208.245335, 97.111794)"><g><path d="M 4.921875 -11.6875 L 10.625 -9.921875 C 11.976562 -9.503906 12.972656 -8.898438 13.609375 -8.109375 C 14.242188 -7.328125 14.421875 -6.472656 14.140625 -5.546875 C 13.941406 -4.921875 13.582031 -4.425781 13.0625 -4.0625 C 12.550781 -3.695312 11.941406 -3.523438 11.234375 -3.546875 C 11.960938 -3.148438 12.460938 -2.609375 12.734375 -1.921875 C 13.015625 -1.242188 13.035156 -0.507812 12.796875 0.28125 C 12.484375 1.300781 11.8125 1.984375 10.78125 2.328125 C 9.757812 2.679688 8.539062 2.640625 7.125 2.203125 L 1.203125 0.375 Z M 7.25 -8.40625 L 6.484375 -5.921875 L 8.984375 -5.15625 C 9.429688 -5.007812 9.820312 -5.007812 10.15625 -5.15625 C 10.488281 -5.300781 10.71875 -5.570312 10.84375 -5.96875 C 10.957031 -6.351562 10.914062 -6.691406 10.71875 -6.984375 C 10.519531 -7.273438 10.195312 -7.492188 9.75 -7.640625 Z M 5.796875 -3.71875 L 4.984375 -1.046875 L 7.484375 -0.28125 C 8.046875 -0.101562 8.523438 -0.0820312 8.921875 -0.21875 C 9.328125 -0.363281 9.59375 -0.644531 9.71875 -1.0625 C 9.851562 -1.46875 9.789062 -1.835938 9.53125 -2.171875 C 9.269531 -2.515625 8.859375 -2.773438 8.296875 -2.953125 Z M 5.796875 -3.71875 "/></g></g></g><g fill="#626060" fill-opacity="1"><g transform="translate(224.893457, 102.677087)"><g><path d="M 9.609375 2.546875 L 4.734375 -0.078125 L 2.828125 1.53125 L -0.078125 -0.046875 L 10.71875 -8.5625 L 13.609375 -7 L 12.296875 6.65625 L 9.296875 5.015625 Z M 9.9375 -0.046875 L 10.5625 -5.015625 L 6.734375 -1.765625 Z M 9.9375 -0.046875 "/></g></g></g><g fill="#626060" fill-opacity="1"><g transform="translate(240.951918, 111.905149)"><g><path d="M 7.296875 6.078125 L 7.921875 0.125 L 5.421875 0.46875 L 3.4375 2.859375 L 0.96875 0.8125 L 9.046875 -8.890625 L 11.515625 -6.84375 L 8.03125 -2.65625 L 15.234375 -3.734375 L 18.09375 -1.359375 L 11.140625 -0.34375 L 10.25 8.546875 Z M 7.296875 6.078125 "/></g></g></g><g fill="#626060" fill-opacity="1"><g transform="translate(254.57231, 123.919875)"><g><path d="M 14.890625 2.234375 L 10.65625 -2.953125 L 8.703125 -1.359375 L 12.515625 3.3125 L 10.578125 4.90625 L 6.765625 0.234375 L 4.78125 1.84375 L 9.140625 7.171875 L 7.1875 8.78125 L 0.796875 0.984375 L 10.5625 -7.015625 L 16.828125 0.640625 Z M 14.890625 2.234375 "/></g></g></g><g fill="#626060" fill-opacity="1"><g transform="translate(264.948003, 137.186771)"><g><path d="M 11.71875 -4.875 L 14.296875 -0.078125 C 15.234375 1.660156 15.476562 3.351562 15.03125 5 C 14.59375 6.65625 13.550781 7.929688 11.90625 8.828125 C 10.257812 9.703125 8.625 9.863281 7 9.3125 C 5.375 8.757812 4.078125 7.582031 3.109375 5.78125 L 0.59375 1.109375 Z M 10.96875 -0.828125 L 4.359375 2.71875 L 5.453125 4.734375 C 5.921875 5.609375 6.609375 6.160156 7.515625 6.390625 C 8.429688 6.617188 9.375 6.472656 10.34375 5.953125 C 11.3125 5.429688 11.945312 4.710938 12.25 3.796875 C 12.5625 2.878906 12.476562 1.96875 12 1.0625 Z M 10.96875 -0.828125 "/></g></g></g><g fill="#626060" fill-opacity="1"><g transform="translate(100.856594, 247.777761)"><g><path d="M 5.234375 6.84375 L 3.9375 5.140625 L 6.53125 3.15625 L 4.40625 0.390625 L 1.8125 2.375 L 0.515625 0.671875 L 7.203125 -4.4375 L 8.5 -2.734375 L 5.75 -0.640625 L 7.875 2.125 L 10.625 0.03125 L 11.921875 1.734375 Z M 5.234375 6.84375 "/></g></g></g><g fill="#626060" fill-opacity="1"><g transform="translate(109.64682, 258.769432)"><g><path d="M 9.4375 -2.59375 C 10.351562 -1.675781 10.828125 -0.625 10.859375 0.5625 C 10.898438 1.75 10.492188 2.773438 9.640625 3.640625 C 8.765625 4.503906 7.726562 4.921875 6.53125 4.890625 C 5.332031 4.859375 4.273438 4.382812 3.359375 3.46875 C 2.441406 2.5625 1.960938 1.507812 1.921875 0.3125 C 1.890625 -0.882812 2.3125 -1.914062 3.1875 -2.78125 C 4.050781 -3.65625 5.078125 -4.070312 6.265625 -4.03125 C 7.453125 -3.988281 8.507812 -3.507812 9.4375 -2.59375 Z M 8.171875 -1.328125 C 7.710938 -1.785156 7.148438 -2.007812 6.484375 -2 C 5.816406 -1.988281 5.234375 -1.734375 4.734375 -1.234375 C 4.242188 -0.734375 3.988281 -0.144531 3.96875 0.53125 C 3.957031 1.207031 4.179688 1.769531 4.640625 2.21875 C 5.097656 2.675781 5.660156 2.894531 6.328125 2.875 C 6.992188 2.851562 7.570312 2.59375 8.0625 2.09375 C 8.5625 1.59375 8.816406 1.007812 8.828125 0.34375 C 8.847656 -0.3125 8.628906 -0.867188 8.171875 -1.328125 Z M 8.171875 -1.328125 "/></g></g></g><g fill="#626060" fill-opacity="1"><g transform="translate(120.003915, 268.68679)"><g><path d="M 8.078125 6.046875 L 6.578125 4.90625 L 9.84375 0.53125 L 5.4375 3.015625 L 4.328125 2.1875 L 5.484375 -2.734375 L 2.203125 1.640625 L 0.671875 0.5 L 5.71875 -6.265625 L 7.59375 -4.859375 L 6.421875 0.546875 L 11.265625 -2.109375 L 13.125 -0.71875 Z M 8.078125 6.046875 "/></g></g></g><g fill="#626060" fill-opacity="1"><g transform="translate(132.704025, 277.67552)"><g><path d="M 9.78125 -2.265625 L 5.890625 -4.4375 L 5.078125 -2.96875 L 8.578125 -1.015625 L 7.75 0.453125 L 4.25 -1.5 L 3.4375 -0.015625 L 7.4375 2.203125 L 6.609375 3.671875 L 0.734375 0.40625 L 4.828125 -6.953125 L 10.59375 -3.734375 Z M 9.78125 -2.265625 "/></g></g></g><g fill="#626060" fill-opacity="1"><g transform="translate(143.930169, 283.678928)"><g><path d="M 9.390625 3.6875 L 7.640625 3 L 9.625 -2.109375 L 6.0625 1.46875 L 4.765625 0.96875 L 4.5625 -4.09375 L 2.5625 1 L 0.78125 0.3125 L 3.859375 -7.546875 L 6.046875 -6.6875 L 6.34375 -1.1875 L 10.3125 -5.015625 L 12.46875 -4.171875 Z M 9.390625 3.6875 "/></g></g></g><g fill="#626060" fill-opacity="1"><g transform="translate(158.57441, 289.01648)"><g><path d="M 6.625 0 L 3.03125 -0.859375 L 2.078125 0.5 L -0.0625 -0.015625 L 5.4375 -7.359375 L 7.578125 -6.84375 L 9.078125 2.171875 L 6.84375 1.640625 Z M 6.390625 -1.734375 L 5.953125 -5.046875 L 4.015625 -2.296875 Z M 6.390625 -1.734375 "/></g></g></g><g fill="#626060" fill-opacity="1"><g transform="translate(172.129438, 291.943531)"><g><path d="M 1.71875 -8.28125 L 5.3125 -7.90625 C 6.632812 -7.769531 7.664062 -7.273438 8.40625 -6.421875 C 9.144531 -5.566406 9.453125 -4.519531 9.328125 -3.28125 C 9.191406 -2.03125 8.664062 -1.0625 7.75 -0.375 C 6.832031 0.3125 5.703125 0.585938 4.359375 0.453125 L 0.84375 0.09375 Z M 3.65625 -6.375 L 3.140625 -1.375 L 4.65625 -1.21875 C 5.3125 -1.15625 5.875 -1.332031 6.34375 -1.75 C 6.8125 -2.164062 7.082031 -2.738281 7.15625 -3.46875 C 7.238281 -4.207031 7.082031 -4.832031 6.6875 -5.34375 C 6.289062 -5.863281 5.753906 -6.160156 5.078125 -6.234375 Z M 3.65625 -6.375 "/></g></g></g><g fill="#626060" fill-opacity="1"><g transform="translate(185.889139, 293.047659)"><g><path d="M 7.296875 -6.890625 L 2.84375 -6.796875 L 2.875 -5.125 L 6.890625 -5.21875 L 6.921875 -3.53125 L 2.90625 -3.4375 L 2.953125 -1.75 L 7.53125 -1.859375 L 7.5625 -0.171875 L 0.84375 -0.015625 L 0.65625 -8.4375 L 7.25 -8.578125 Z M 7.296875 -6.890625 "/></g></g></g><g fill="#626060" fill-opacity="1"><g transform="translate(198.415856, 292.440851)"><g/></g></g><g fill="#626060" fill-opacity="1"><g transform="translate(205.597594, 291.526989)"><g><path d="M 2.890625 -9.3125 C 3.515625 -9.445312 4.148438 -9.445312 4.796875 -9.3125 C 5.441406 -9.1875 6.015625 -8.957031 6.515625 -8.625 L 5.609375 -6.9375 C 5.273438 -7.195312 4.898438 -7.382812 4.484375 -7.5 C 4.066406 -7.625 3.675781 -7.644531 3.3125 -7.5625 C 2.664062 -7.425781 2.171875 -7.082031 1.828125 -6.53125 C 1.484375 -5.976562 1.382812 -5.363281 1.53125 -4.6875 C 1.675781 -3.988281 2.019531 -3.453125 2.5625 -3.078125 C 3.101562 -2.710938 3.695312 -2.597656 4.34375 -2.734375 C 4.6875 -2.816406 5.023438 -2.984375 5.359375 -3.234375 C 5.703125 -3.492188 5.984375 -3.800781 6.203125 -4.15625 L 7.703125 -3.109375 C 7.347656 -2.566406 6.894531 -2.09375 6.34375 -1.6875 C 5.800781 -1.28125 5.226562 -1.015625 4.625 -0.890625 C 3.382812 -0.628906 2.265625 -0.8125 1.265625 -1.4375 C 0.273438 -2.070312 -0.347656 -2.992188 -0.609375 -4.203125 C -0.859375 -5.378906 -0.648438 -6.457031 0.015625 -7.4375 C 0.679688 -8.414062 1.640625 -9.039062 2.890625 -9.3125 Z M 2.890625 -9.3125 "/></g></g></g><g fill="#626060" fill-opacity="1"><g transform="translate(218.1789, 288.584326)"><g><path d="M 1.734375 -9.625 C 2.960938 -10.0625 4.117188 -10.035156 5.203125 -9.546875 C 6.296875 -9.066406 7.046875 -8.253906 7.453125 -7.109375 C 7.859375 -5.941406 7.785156 -4.820312 7.234375 -3.75 C 6.691406 -2.6875 5.804688 -1.941406 4.578125 -1.515625 C 3.359375 -1.085938 2.203125 -1.113281 1.109375 -1.59375 C 0.015625 -2.082031 -0.734375 -2.910156 -1.140625 -4.078125 C -1.546875 -5.234375 -1.472656 -6.335938 -0.921875 -7.390625 C -0.378906 -8.453125 0.503906 -9.195312 1.734375 -9.625 Z M 2.34375 -7.9375 C 1.726562 -7.71875 1.28125 -7.304688 1 -6.703125 C 0.726562 -6.097656 0.707031 -5.460938 0.9375 -4.796875 C 1.175781 -4.140625 1.597656 -3.660156 2.203125 -3.359375 C 2.804688 -3.054688 3.410156 -3.007812 4.015625 -3.21875 C 4.628906 -3.4375 5.066406 -3.847656 5.328125 -4.453125 C 5.597656 -5.066406 5.613281 -5.703125 5.375 -6.359375 C 5.144531 -7.023438 4.734375 -7.507812 4.140625 -7.8125 C 3.554688 -8.113281 2.957031 -8.15625 2.34375 -7.9375 Z M 2.34375 -7.9375 "/></g></g></g><g fill="#626060" fill-opacity="1"><g transform="translate(231.565455, 283.532397)"><g><path d="M 0.421875 -9.78125 C 1.578125 -10.375 2.726562 -10.503906 3.875 -10.171875 C 5.019531 -9.835938 5.875 -9.128906 6.4375 -8.046875 C 7 -6.953125 7.078125 -5.835938 6.671875 -4.703125 C 6.273438 -3.578125 5.5 -2.71875 4.34375 -2.125 C 3.195312 -1.539062 2.046875 -1.410156 0.890625 -1.734375 C -0.253906 -2.066406 -1.109375 -2.78125 -1.671875 -3.875 C -2.234375 -4.96875 -2.3125 -6.078125 -1.90625 -7.203125 C -1.507812 -8.328125 -0.734375 -9.1875 0.421875 -9.78125 Z M 1.265625 -8.1875 C 0.679688 -7.882812 0.289062 -7.414062 0.09375 -6.78125 C -0.101562 -6.144531 -0.0390625 -5.515625 0.28125 -4.890625 C 0.601562 -4.265625 1.082031 -3.84375 1.71875 -3.625 C 2.351562 -3.40625 2.957031 -3.441406 3.53125 -3.734375 C 4.113281 -4.023438 4.492188 -4.488281 4.671875 -5.125 C 4.859375 -5.769531 4.789062 -6.40625 4.46875 -7.03125 C 4.144531 -7.65625 3.671875 -8.078125 3.046875 -8.296875 C 2.429688 -8.515625 1.835938 -8.476562 1.265625 -8.1875 Z M 1.265625 -8.1875 "/></g></g></g><g fill="#626060" fill-opacity="1"><g transform="translate(244.125118, 276.712722)"><g><path d="M 5.203125 -3.609375 L 1.484375 -5.0625 L 1.28125 -3.390625 L 2.453125 -1.703125 L 0.6875 -0.484375 L -4.109375 -7.40625 L -2.34375 -8.625 L -0.265625 -5.625 L 0.296875 -10.453125 L 2.34375 -11.875 L 1.765625 -7.234375 L 7.3125 -5.0625 Z M 5.203125 -3.609375 "/></g></g></g><g fill="#626060" fill-opacity="1"><g transform="translate(254.97463, 268.746402)"><g><path d="M 2.265625 -1.9375 L 0.640625 -0.546875 L -4.84375 -6.9375 L -3.21875 -8.328125 Z M 2.265625 -1.9375 "/></g></g></g><g fill="#626060" fill-opacity="1"><g transform="translate(261.189702, 263.258851)"><g><path d="M 0.265625 -10.03125 L -2.8125 -6.8125 L -1.59375 -5.65625 L 1.171875 -8.5625 L 2.390625 -7.390625 L -0.375 -4.484375 L 0.84375 -3.328125 L 4 -6.640625 L 5.21875 -5.46875 L 0.578125 -0.609375 L -5.515625 -6.421875 L -0.953125 -11.1875 Z M 0.265625 -10.03125 "/></g></g></g><g fill="#626060" fill-opacity="1"><g transform="translate(269.726903, 253.918464)"><g><path d="M -4.359375 -8.375 C -3.597656 -9.375 -2.679688 -10.070312 -1.609375 -10.46875 L -0.75 -8.8125 C -1.226562 -8.625 -1.679688 -8.375 -2.109375 -8.0625 C -2.546875 -7.757812 -2.867188 -7.46875 -3.078125 -7.1875 C -3.453125 -6.695312 -3.476562 -6.328125 -3.15625 -6.078125 C -2.945312 -5.921875 -2.679688 -5.914062 -2.359375 -6.0625 C -2.046875 -6.21875 -1.710938 -6.429688 -1.359375 -6.703125 C -1.003906 -6.984375 -0.628906 -7.25 -0.234375 -7.5 C 0.160156 -7.75 0.59375 -7.882812 1.0625 -7.90625 C 1.539062 -7.9375 2.003906 -7.78125 2.453125 -7.4375 C 3.097656 -6.945312 3.410156 -6.3125 3.390625 -5.53125 C 3.378906 -4.75 3.082031 -3.96875 2.5 -3.1875 C 2.082031 -2.632812 1.566406 -2.160156 0.953125 -1.765625 C 0.347656 -1.367188 -0.269531 -1.085938 -0.90625 -0.921875 L -1.703125 -2.578125 C -1.171875 -2.703125 -0.632812 -2.921875 -0.09375 -3.234375 C 0.445312 -3.554688 0.851562 -3.898438 1.125 -4.265625 C 1.332031 -4.535156 1.441406 -4.785156 1.453125 -5.015625 C 1.472656 -5.242188 1.390625 -5.429688 1.203125 -5.578125 C 1.003906 -5.722656 0.773438 -5.753906 0.515625 -5.671875 C 0.265625 -5.585938 0.015625 -5.4375 -0.234375 -5.21875 C -0.492188 -5 -0.789062 -4.773438 -1.125 -4.546875 C -1.46875 -4.316406 -1.796875 -4.113281 -2.109375 -3.9375 C -2.429688 -3.769531 -2.789062 -3.695312 -3.1875 -3.71875 C -3.582031 -3.738281 -3.96875 -3.890625 -4.34375 -4.171875 C -4.957031 -4.640625 -5.265625 -5.253906 -5.265625 -6.015625 C -5.265625 -6.773438 -4.960938 -7.5625 -4.359375 -8.375 Z M -4.359375 -8.375 "/></g></g></g></svg>