<svg xmlns="http://www.w3.org/2000/svg" xmlns:xlink="http://www.w3.org/1999/xlink" width="500" zoomAndPan="magnify" viewBox="0 0 375 374.999991" height="500" preserveAspectRatio="xMidYMid meet" version="1.0"><path fill="#ffffff" d="M 307.820312 207.21875 L 67.179688 207.21875 C 63.496094 207.21875 60.496094 204.214844 60.496094 200.535156 C 60.496094 196.851562 63.496094 193.851562 67.179688 193.851562 L 307.820312 193.851562 C 311.503906 193.851562 314.503906 196.851562 314.503906 200.535156 C 314.503906 204.214844 311.503906 207.21875 307.820312 207.21875 Z M 307.820312 240.640625 L 227.605469 240.640625 C 223.925781 240.640625 220.921875 237.640625 220.921875 233.957031 C 220.921875 230.277344 223.925781 227.273438 227.605469 227.273438 L 307.820312 227.273438 C 311.503906 227.273438 314.503906 230.277344 314.503906 233.957031 C 314.503906 237.640625 311.503906 240.640625 307.820312 240.640625 Z M 274.398438 274.0625 L 100.601562 274.0625 C 96.917969 274.0625 93.917969 271.0625 93.917969 267.378906 C 93.917969 263.699219 96.917969 260.695312 100.601562 260.695312 L 274.398438 260.695312 C 278.078125 260.695312 281.082031 263.699219 281.082031 267.378906 C 281.082031 271.0625 278.078125 274.0625 274.398438 274.0625 Z M 60.496094 233.957031 C 60.496094 230.277344 63.496094 227.273438 67.179688 227.273438 L 200.867188 227.273438 C 204.550781 227.273438 207.554688 230.277344 207.554688 233.957031 C 207.554688 237.640625 204.550781 240.640625 200.867188 240.640625 L 67.179688 240.640625 C 63.496094 240.640625 60.496094 237.640625 60.496094 233.957031 Z M 109.246094 108.910156 L 142.667969 75.488281 C 145.277344 72.875 149.507812 72.875 152.121094 75.488281 C 154.730469 78.097656 154.730469 82.328125 152.121094 84.941406 L 123.421875 113.636719 L 152.121094 142.332031 C 154.730469 144.945312 154.730469 149.171875 152.121094 151.785156 C 150.8125 153.089844 149.117188 153.742188 147.394531 153.742188 C 145.667969 153.742188 143.972656 153.089844 142.667969 151.785156 L 109.246094 118.363281 C 106.632812 115.75 106.632812 111.519531 109.246094 108.910156 Z M 167.707031 158.601562 L 194.445312 65.015625 C 195.464844 61.464844 199.171875 59.457031 202.695312 60.421875 C 206.246094 61.441406 208.3125 65.121094 207.292969 68.671875 L 180.554688 162.253906 C 179.71875 165.207031 177.03125 167.113281 174.132812 167.113281 C 173.53125 167.113281 172.902344 167.035156 172.304688 166.851562 C 168.753906 165.832031 166.6875 162.152344 167.707031 158.601562 Z M 222.878906 84.941406 C 220.269531 82.328125 220.269531 78.097656 222.878906 75.488281 C 225.492188 72.875 229.722656 72.875 232.332031 75.488281 L 265.753906 108.910156 C 268.367188 111.519531 268.367188 115.75 265.753906 118.363281 L 232.332031 151.785156 C 231.027344 153.089844 229.332031 153.742188 227.605469 153.742188 C 225.882812 153.742188 224.1875 153.089844 222.878906 151.785156 C 220.269531 149.171875 220.269531 144.945312 222.878906 142.332031 L 251.578125 113.636719 Z M 187.5 0 C 84.28125 0 0.335938 77.96875 0.335938 173.796875 C 0.335938 220.925781 20.335938 265.054688 56.683594 298.058594 C 58.40625 299.601562 59.1875 301.898438 58.769531 304.171875 L 47.152344 369.867188 C 46.839844 371.796875 47.988281 373 48.507812 373.445312 C 49.003906 373.863281 50.335938 374.722656 52.085938 374.121094 L 140.160156 343.023438 C 141.335938 342.605469 142.613281 342.5 143.84375 342.789062 C 157.914062 345.976562 172.589844 347.59375 187.5 347.59375 C 290.71875 347.59375 374.664062 269.625 374.664062 173.796875 C 374.664062 77.96875 290.71875 0 187.5 0 " fill-opacity="1" fill-rule="nonzero"/></svg>